<svg height="493pt" viewBox="-6 0 493 493.774" width="493pt" xmlns="http://www.w3.org/2000/svg" xmlns:xlink="http://www.w3.org/1999/xlink"><linearGradient id="a"><stop offset="0" stop-color="#00efd1"/><stop offset="1" stop-color="#00acea"/></linearGradient><linearGradient id="b" gradientUnits="userSpaceOnUse" x1="72.371056" x2="72.371056" xlink:href="#a" y1="1.823" y2="491.203"/><linearGradient id="c" gradientUnits="userSpaceOnUse" x1="213.785056" x2="213.785056" xlink:href="#a" y1="1.823" y2="491.203"/><linearGradient id="d" gradientUnits="userSpaceOnUse" x1="143.078056" x2="143.078056" xlink:href="#a" y1="1.823" y2="491.203"/><linearGradient id="e" gradientUnits="userSpaceOnUse" x1="240.587056" x2="240.587056" xlink:href="#a" y1="1.823" y2="491.203"/><linearGradient id="f" gradientUnits="userSpaceOnUse" x1="349.391056" x2="349.391056" xlink:href="#a" y1="1.823" y2="491.203"/><path d="m94.238281 114h-43.734375c-4.421875 0-8 3.582031-8 8s3.578125 8 8 8h43.734375c4.421875 0 8-3.582031 8-8s-3.578125-8-8-8zm0 0" fill="url(#b)"/><path d="m191.917969 130h43.734375c4.421875 0 8-3.582031 8-8s-3.578125-8-8-8h-43.734375c-4.421875 0-8 3.582031-8 8s3.578125 8 8 8zm0 0" fill="url(#c)"/><path d="m164.945312 114h-43.734374c-4.421876 0-8 3.582031-8 8s3.578124 8 8 8h43.734374c4.421876 0 8-3.582031 8-8s-3.578124-8-8-8zm0 0" fill="url(#d)"/><path d="m94.238281 175h-43.734375c-4.421875 0-8 3.582031-8 8s3.578125 8 8 8h43.734375c4.421875 0 8-3.582031 8-8s-3.578125-8-8-8zm0 0" fill="url(#b)"/><path d="m191.917969 191h43.734375c4.421875 0 8-3.582031 8-8s-3.578125-8-8-8h-43.734375c-4.421875 0-8 3.582031-8 8s3.578125 8 8 8zm0 0" fill="url(#c)"/><path d="m164.945312 175h-43.734374c-4.421876 0-8 3.582031-8 8s3.578124 8 8 8h43.734374c4.421876 0 8-3.582031 8-8s-3.578124-8-8-8zm0 0" fill="url(#d)"/><path d="m94.238281 236h-43.734375c-4.421875 0-8 3.582031-8 8s3.578125 8 8 8h43.734375c4.421875 0 8-3.582031 8-8s-3.578125-8-8-8zm0 0" fill="url(#b)"/><path d="m191.917969 252h43.734375c4.421875 0 8-3.582031 8-8s-3.578125-8-8-8h-43.734375c-4.421875 0-8 3.582031-8 8s3.578125 8 8 8zm0 0" fill="url(#c)"/><path d="m164.945312 236h-43.734374c-4.421876 0-8 3.582031-8 8s3.578124 8 8 8h43.734374c4.421876 0 8-3.582031 8-8s-3.578124-8-8-8zm0 0" fill="url(#d)"/><path d="m94.238281 297h-43.734375c-4.421875 0-8 3.582031-8 8s3.578125 8 8 8h43.734375c4.421875 0 8-3.582031 8-8s-3.578125-8-8-8zm0 0" fill="url(#b)"/><path d="m164.945312 297h-43.734374c-4.421876 0-8 3.582031-8 8s3.578124 8 8 8h43.734374c4.421876 0 8-3.582031 8-8s-3.578124-8-8-8zm0 0" fill="url(#d)"/><path d="m347.859375 227.824219c-17.679687-.003907-35.183594 3.542969-51.46875 10.433593v-173.6875c0-4.417968-3.898437-7.570312-8.3125-7.570312h-29.6875v-48.824219c0-4.417969-4.078125-8.175781-8.5-8.175781h-203.628906c-4.429688.09375-7.945313 3.746094-7.871094 8.175781v48.824219h-30.3125c-2.042969-.085938-4.03125.679688-5.488281 2.117188-1.457032 1.433593-2.253906 3.410156-2.199219 5.453124v400.53125c-.066406 2.078126.714844 4.09375 2.164063 5.582032 1.449218 1.492187 3.445312 2.328125 5.523437 2.316406h268.414063c21.292968 13.527344 45.988281 20.730469 71.21875 20.773438 73.335937 0 133.078124-59.636719 133.078124-132.972657 0-73.335937-59.589843-132.976562-132.929687-132.976562zm-293.46875-211.824219h188v41h-188zm139 441h-95v-101h95zm16 0v-108.84375c-.007813-4.457031-3.589844-8.085938-8.046875-8.15625h-111.246094c-2.105468.046875-4.109375.9375-5.554687 2.46875-1.449219 1.53125-2.222657 3.582031-2.152344 5.6875v108.84375h-66v-384h264v173.347656c-20.742187 12.035156-37.761719 29.5625-49.175781 50.652344h-39.300782c-4.417968 0-8 3.582031-8 8s3.582032 8 8 8h31.800782c-19.511719 50.105469-6.734375 107.039062 32.320312 144zm138.3125 20.824219c-64.617187 0-117-52.382813-117-117 0-64.617188 52.382813-117 117-117s117 52.382812 117 117c-.074219 64.589843-52.414063 116.929687-117 117zm0 0" fill="url(#e)"/><path d="m422.695312 304.261719-71.148437-22.917969c-1.609375-.515625-3.339844-.515625-4.949219 0l-70.867187 22.917969c-3.257813 1.089843-5.425781 4.179687-5.339844 7.617187v97.007813c-.09375 3.433593 2.066406 6.523437 5.320313 7.613281l70.964843 22.921875c.773438.253906 1.582031.386719 2.398438.386719.824219 0 1.644531-.132813 2.425781-.386719l71.210938-22.921875c3.335937-1.050781 5.621093-4.117188 5.679687-7.613281v-97.007813c-.0625-3.5-2.355469-6.566406-5.695313-7.617187zm-73.679687-6.898438 45.011719 14.515625-45.011719 14.515625-45.007813-14.515625zm-62.625 25.5 54 17.558594v80.199219l-54-17.558594zm70 98.160157v-80.199219l56-17.964844v80.203125zm0 0" fill="url(#f)"/></svg>