<svg height="511pt" viewBox="-78 0 511 511.99888" width="511pt" xmlns="http://www.w3.org/2000/svg" xmlns:xlink="http://www.w3.org/1999/xlink"><linearGradient id="a" gradientUnits="userSpaceOnUse" x1=".49894" x2="355.16594" y1="256" y2="256"><stop offset="0" stop-color="#80d8ff"/><stop offset="1" stop-color="#ea80fc"/></linearGradient><path d="m177.832031 0c-97.78125 0-177.332031 79.550781-177.332031 177.332031 0 80.179688 37.726562 160.980469 82.027344 227.429688 39.96875 59.957031 79.5 99.714843 81.164062 101.378906 7.808594 7.808594 20.472656 7.8125 28.285156 0 1.660157-1.664063 41.191407-41.421875 81.164063-101.378906 44.296875-66.445313 82.027344-147.246094 82.027344-227.429688-.003907-97.78125-79.554688-177.332031-177.335938-177.332031zm.007813 462.644531c-37.628906-42.140625-137.339844-165.160156-137.339844-285.308593 0-75.730469 61.605469-137.335938 137.332031-137.335938 75.726563 0 137.332031 61.605469 137.332031 137.332031 0 100.21875-71.046874 211.191407-137.324218 285.3125zm-.007813-344.644531c-32.714843 0-59.332031 26.617188-59.332031 59.332031 0 32.71875 26.617188 59.332031 59.332031 59.332031 32.714844 0 59.332031-26.613281 59.332031-59.332031 0-32.714843-26.613281-59.332031-59.332031-59.332031zm0 78.667969c-10.660156 0-19.332031-8.675781-19.332031-19.332031 0-10.664063 8.671875-19.335938 19.332031-19.335938 10.660157 0 19.332031 8.675781 19.332031 19.335938 0 10.65625-8.671874 19.332031-19.332031 19.332031zm0 0" fill="url(#a)"/></svg>