<svg height="512pt" viewBox="0 0 512.00038 512" width="512pt" xmlns="http://www.w3.org/2000/svg" xmlns:xlink="http://www.w3.org/1999/xlink"><linearGradient id="a" gradientUnits="userSpaceOnUse" x1="0" x2="512.0005" y1="256.00039" y2="256.00039"><stop offset="0" stop-color="#80d8ff"/><stop offset="1" stop-color="#ea80fc"/></linearGradient><path d="m506.144531 477.859375-120.5-120.496094c32.597657-39.074219 50.355469-87.851562 50.355469-139.363281 0-120.480469-97.5-218-218-218-120.480469 0-218 97.5-218 218 0 120.480469 97.5 218 218 218 51.511719 0 100.285156-17.753906 139.359375-50.355469l120.496094 120.496094c7.8125 7.8125 20.476562 7.8125 28.285156 0 7.8125-7.808594 7.8125-20.472656.003906-28.28125zm-466.144531-259.859375c0-98.148438 79.851562-178 178-178s178 79.851562 178 178-79.851562 178-178 178-178-79.851562-178-178zm0 0" fill="url(#a)"/></svg>